<svg version="1.2" xmlns="http://www.w3.org/2000/svg" viewBox="0 0 36 36" width="36" height="36"><style>.a{fill:none}</style><path fill-rule="evenodd" d="m24.3 27.8c-1.7 0-3-2.5-3-6q0-0.9 0.1-1.7 0.1-0.9 0.3-1.8 0.2-0.8 0.6-1.6 0.3-0.8 0.7-1.6-0.3-0.4-0.8-0.6-0.5-0.2-1.1-0.2-0.5 0-1 0.2-0.5 0.2-0.9 0.6 0.5 0.8 0.8 1.6 0.4 0.8 0.6 1.6 0.2 0.9 0.3 1.7 0.1 0.9 0.1 1.8c0 3.5-1.2 6-3 6-1.8 0-3-2.5-3-6q0-0.9 0.1-1.8 0.1-0.9 0.3-1.7 0.2-0.9 0.5-1.7 0.4-0.8 0.8-1.5-0.3-0.4-0.8-0.7-0.5-0.2-1.1-0.2-0.5 0-1 0.2-0.5 0.3-0.9 0.7 0.5 0.7 0.8 1.5 0.3 0.8 0.6 1.7 0.2 0.8 0.3 1.7 0.1 0.9 0.1 1.8c-0.1 3.5-1.3 6-3 6-1.8 0-3-2.5-3-6q-0.1-0.9 0-1.8 0.1-0.9 0.3-1.7 0.3-0.9 0.6-1.7 0.3-0.8 0.8-1.5-0.2-0.2-0.4-0.4-0.3-0.2-0.5-0.3-0.2-0.1-0.5-0.1-0.3-0.1-0.5-0.1c-1.4 0-2.8 1.5-3.5 3.8l-0.2 0.7h-2.8q-0.4 0-0.7-0.3-0.3-0.3-0.3-0.7 0-0.4 0.3-0.7 0.3-0.3 0.7-0.3h1.3c1.1-2.8 3-4.6 5.2-4.6q0.5 0.1 0.9 0.1 0.4 0.1 0.8 0.3 0.4 0.2 0.8 0.4 0.4 0.3 0.7 0.6 0.3-0.3 0.7-0.6 0.3-0.2 0.7-0.4 0.4-0.2 0.9-0.3 0.4 0 0.8-0.1 0.5 0.1 0.9 0.2 0.4 0.1 0.9 0.2 0.4 0.2 0.7 0.4 0.4 0.3 0.7 0.6 0.6-0.6 1.4-1 0.9-0.3 1.8-0.3 0.8 0 1.7 0.3 0.8 0.4 1.4 1 0.3-0.3 0.7-0.5 0.4-0.3 0.8-0.5 0.4-0.1 0.8-0.2 0.4-0.1 0.9-0.1c2.1 0 4.1 1.7 5.2 4.5h1.3q0.4 0 0.7 0.3 0.3 0.3 0.3 0.7 0 0.5-0.3 0.7-0.3 0.3-0.7 0.3h-2.7l-0.3-0.7c-0.7-2.3-2.1-3.8-3.5-3.8q-0.3 0-0.6 0.1-0.2 0-0.5 0.1-0.2 0.1-0.4 0.3-0.2 0.2-0.4 0.4 0.4 0.7 0.7 1.5 0.4 0.8 0.6 1.7 0.2 0.8 0.3 1.7 0.1 0.9 0.1 1.8c0 3.5-1.2 6-3 6zm-6.3-10.9q-0.3 0.6-0.4 1.2-0.2 0.6-0.4 1.2-0.1 0.6-0.1 1.2-0.1 0.6-0.1 1.3c0 2.5 0.7 3.7 1 4 0.3-0.3 1-1.5 1-4q0-0.7-0.1-1.3 0-0.6-0.1-1.2-0.2-0.6-0.4-1.2-0.1-0.6-0.4-1.2zm6.3 0q-0.2 0.6-0.4 1.2-0.2 0.6-0.3 1.2-0.2 0.6-0.2 1.2-0.1 0.6-0.1 1.3c0 2.5 0.7 3.7 1 4 0.3-0.3 1-1.5 1-4q0-0.7 0-1.3-0.1-0.6-0.2-1.2-0.2-0.6-0.3-1.2-0.2-0.6-0.5-1.2zm-12.6 0q-0.3 0.6-0.5 1.2-0.1 0.6-0.3 1.2-0.1 0.6-0.2 1.2 0 0.6 0 1.3c0 2.5 0.6 3.7 1 4 0.3-0.3 1-1.5 1-4q0-0.7-0.1-1.3 0-0.6-0.2-1.2-0.1-0.6-0.3-1.2-0.2-0.6-0.4-1.2z"/><path class="a" d="m0 1h36v36h-36z"/></svg>