<svg version="1.2" xmlns="http://www.w3.org/2000/svg" viewBox="0 0 298 298" width="298" height="298"><style></style><path fill-rule="evenodd" d="m298 157.2h-59.5c-3.3 9.6-12.5 16.5-23.2 16.5-13.5 0-24.5-10.9-24.5-24.5 0-13.5 11-24.5 24.5-24.5 10.7 0 19.9 7 23.2 16.5h59.5zm-82.7-16.5c-4.7 0-8.5 3.9-8.5 8.5 0 4.7 3.8 8.5 8.5 8.5 4.7 0 8.5-3.8 8.5-8.5 0-4.6-3.8-8.5-8.5-8.5z"/><path fill-rule="evenodd" d="m182.3 61.6l-76.9 76.9c1.5 3.3 2.4 6.9 2.4 10.7 0 13.6-11 24.5-24.5 24.5-10.7 0-19.8-6.9-23.1-16.5h-60.2v-16h60.2c3.3-9.5 12.4-16.5 23.1-16.5 3.9 0 7.5 0.9 10.7 2.5l77-76.9zm-99 96.1c4.7 0 8.5-3.8 8.5-8.5 0-4.7-3.8-8.5-8.5-8.5-4.7 0-8.5 3.8-8.5 8.5 0 4.7 3.8 8.5 8.5 8.5z"/></svg>